<svg width="24" height="24" viewBox="0 0 24 24" fill="none" xmlns="http://www.w3.org/2000/svg">
<path d="M0.749981 5.49996H23.25C23.664 5.49996 23.9999 5.16393 23.9999 4.74998C23.9999 4.33596 23.6639 4 23.25 4H0.749981C0.335964 4 0 4.33603 0 4.74998C0 5.16393 0.336026 5.49996 0.749981 5.49996Z" fill="white"/>
<path d="M23.25 9.25H0.749981C0.335964 9.25 0 9.58603 0 9.99998C0 10.4139 0.336026 10.75 0.749981 10.75H23.25C23.664 10.75 23.9999 10.4139 23.9999 9.99998C23.9999 9.58603 23.664 9.25 23.25 9.25Z" fill="white"/>
<path d="M23.25 14.5H8.24998C7.83596 14.5 7.5 14.836 7.5 15.25C7.5 15.664 7.83603 16 8.24998 16H23.25C23.664 16 23.9999 15.6639 23.9999 15.25C24 14.836 23.664 14.5 23.25 14.5Z" fill="white"/>
</svg>
